<?xml version="1.0" encoding="UTF-8"?>
<svg version="1.1" xmlns="http://www.w3.org/2000/svg" width="642" height="300" viewBox="0 0 642 248" preserveAspectRatio="xMinYMin meet">
<path d="M0 0 C211.86 0 423.72 0 642 0 C642 81.84 642 163.68 642 248 C430.14 248 218.28 248 0 248 C0 166.16 0 84.32 0 0 Z " fill="#FEFDFC" transform="translate(0,0)"/>
<path d="M0 0 C2.59733443 -0.00218836 5.19424391 -0.02042907 7.79150391 -0.03930664 C21.1299295 -0.08529275 34.58082865 0.37169232 47.42041016 4.37280273 C48.47047241 4.69535034 48.47047241 4.69535034 49.54174805 5.02441406 C62.80525741 9.30564474 74.37136098 16.36452701 81.60791016 28.62280273 C87.36003002 40.10664488 88.99872014 50.40914878 89.04541016 63.12280273 C89.04933777 64.14448044 89.04933777 64.14448044 89.05334473 65.1867981 C89.06152001 85.26267372 85.7452203 104.86886556 82.30859375 124.60620117 C81.22906122 130.8899845 80.29729535 137.18452915 79.43994141 143.50170898 C79.32934891 144.31476501 79.21875641 145.12782104 79.10481262 145.96551514 C78.55405399 150.03115081 78.01304371 154.09785339 77.4831543 158.16625977 C77.28269206 159.66611572 77.08209592 161.16595379 76.88134766 162.66577148 C76.79500565 163.35119522 76.70866364 164.03661896 76.6197052 164.74281311 C75.96123028 169.60477411 75.26915528 173.64905761 71.73291016 177.18530273 C69.53846741 177.43927002 69.53846741 177.43927002 66.7800293 177.4440918 C65.23316185 177.45354828 65.23316185 177.45354828 63.65504456 177.4631958 C62.53734177 177.45914734 61.41963898 177.45509888 60.26806641 177.45092773 C59.12381699 177.45284119 57.97956757 177.45475464 56.80064392 177.45672607 C54.37710348 177.45808906 51.95355577 177.45438477 49.5300293 177.44604492 C45.81428652 177.43535703 42.09902834 177.44593163 38.38330078 177.45874023 C36.03238825 177.45741847 33.68147603 177.45485572 31.33056641 177.45092773 C30.21488785 177.4549762 29.09920929 177.45902466 27.94972229 177.4631958 C26.91532516 177.45689148 25.88092804 177.45058716 24.81518555 177.4440918 C23.44856529 177.44170502 23.44856529 177.44170502 22.05433655 177.43927002 C19.73291016 177.18530273 19.73291016 177.18530273 16.73291016 175.18530273 C15.51498212 167.72250838 16.96065489 160.07079985 18.38598633 152.73608398 C19.81010041 145.24023479 20.73327302 137.69230406 21.67041016 130.12280273 C23.00649826 119.37681149 24.5338813 108.6878444 26.42602539 98.02294922 C30.5594239 76.11707637 30.5594239 76.11707637 25.73291016 55.18530273 C21.860427 51.31281958 17.97924328 49.34322017 12.50317383 48.95825195 C11.3144165 48.96872559 10.12565918 48.97919922 8.90087891 48.98999023 C6.96245117 48.9996582 6.96245117 48.9996582 4.98486328 49.00952148 C3.63004285 49.02622946 2.27522514 49.04315932 0.92041016 49.06030273 C-0.45393235 49.07034271 -1.82828188 49.07946677 -3.20263672 49.08764648 C-6.55763301 49.11119032 -9.91227184 49.14407707 -13.26708984 49.18530273 C-14.99724694 59.15100762 -16.59017916 69.09574073 -17.73974609 79.14624023 C-18.13847687 82.43544931 -18.6825144 85.68957572 -19.24365234 88.95483398 C-20.23236449 94.78609716 -20.93262494 100.62051419 -21.57958984 106.49780273 C-22.87524216 117.81201079 -24.62821858 129.02746765 -26.49633789 140.25732422 C-27.61500456 147.01485382 -28.6461107 153.75166966 -29.39208984 160.56030273 C-30.04206052 166.14637145 -31.08113181 170.9936524 -33.26708984 176.18530273 C-35.7326673 177.41809146 -37.37091465 177.31879063 -40.12817383 177.33056641 C-41.13939804 177.33694626 -42.15062225 177.34332611 -43.19248962 177.34989929 C-44.83623314 177.35156853 -44.83623314 177.35156853 -46.51318359 177.35327148 C-47.63523697 177.35659988 -48.75729034 177.35992828 -49.91334534 177.36335754 C-52.28980091 177.36842726 -54.66626363 177.37076586 -57.04272461 177.37060547 C-60.68599123 177.37279157 -64.32895499 177.39094602 -67.97216797 177.40991211 C-70.27750547 177.41284604 -72.58284442 177.41483084 -74.88818359 177.41577148 C-75.98198837 177.422957 -77.07579315 177.43014252 -78.20274353 177.43754578 C-79.72430809 177.43293083 -79.72430809 177.43293083 -81.27661133 177.42822266 C-82.61658424 177.43036018 -82.61658424 177.43036018 -83.98362732 177.43254089 C-86.26708984 177.18530273 -86.26708984 177.18530273 -89.26708984 175.18530273 C-90.53416798 166.39270048 -88.68840408 157.3799029 -87.07958984 148.74780273 C-86.60087708 146.05678798 -86.1350212 143.3636628 -85.67333984 140.66967773 C-85.55352249 139.97155472 -85.43370514 139.2734317 -85.31025696 138.55415344 C-84.14118654 131.63344507 -83.23561402 124.68698917 -82.35992432 117.72406006 C-80.08733145 99.67641692 -77.51972424 81.67200579 -74.87240601 63.67611694 C-74.42920482 60.66166852 -73.99090984 57.64657276 -73.55703735 54.63076782 C-73.03798898 51.02522175 -72.5084826 47.42135264 -71.97152328 43.81843185 C-71.6801311 41.84750265 -71.39848749 39.87513973 -71.11721802 37.90274048 C-67.60095772 14.59839569 -67.60095772 14.59839569 -60.26708984 9.18530273 C-58.87490234 8.10249023 -58.87490234 8.10249023 -57.45458984 6.99780273 C-41.73621962 -1.94009406 -17.66359798 -0.00165918 0 0 Z " fill="#E5262A" transform="translate(353.26708984375,63.814697265625)"/>
<path d="M0 0 C1.60197487 -0.01418472 1.60197487 -0.01418472 3.23631287 -0.02865601 C4.38946487 -0.02258331 5.54261688 -0.01651062 6.73071289 -0.01025391 C7.91556778 -0.01312408 9.10042267 -0.01599426 10.32118225 -0.01895142 C12.82870969 -0.02099433 15.33625298 -0.01544872 17.84375 -0.00292969 C21.68468874 0.01310561 25.52457284 -0.00276443 29.36547852 -0.02197266 C31.79972563 -0.01998999 34.2339721 -0.01614582 36.66821289 -0.01025391 C38.39490456 -0.01936295 38.39490456 -0.01936295 40.15647888 -0.02865601 C41.22761429 -0.01919952 42.29874969 -0.00974304 43.40234375 0 C44.34371689 0.00238678 45.28509003 0.00477356 46.25498962 0.00723267 C49.22124642 0.45727349 50.60593034 1.33579079 52.76586914 3.38818359 C53.20043945 5.49951172 53.20043945 5.49951172 53.09399414 7.91943359 C53.05725586 8.81017578 53.02051758 9.70091797 52.98266602 10.61865234 C52.63450709 15.06630427 52.13387804 19.47016035 51.51586914 23.88818359 C51.38164551 24.88027832 51.24742188 25.87237305 51.10913086 26.89453125 C49.64732858 37.54290441 47.98898136 48.16131607 46.3293457 58.78027344 C45.29902626 65.37735346 44.27560823 71.97542374 43.26586914 78.57568359 C43.1602063 79.26571472 43.05454346 79.95574585 42.94567871 80.66668701 C41.16094854 92.36563758 39.61888733 104.08627679 38.14697266 115.828125 C37.31330702 122.40137234 36.41669797 128.9364346 35.20336914 135.45068359 C33.99618543 141.95346879 32.95471793 148.46599109 32.01586914 155.01318359 C31.87592529 155.93881104 31.73598145 156.86443848 31.59179688 157.81811523 C30.23986347 166.88624358 30.23986347 166.88624358 33.753479 175.04571533 C37.8585482 178.23786305 40.79236105 178.09246196 45.85473633 178.03173828 C46.76094223 178.04061569 47.66714813 178.0494931 48.60081482 178.05863953 C51.58849893 178.08229324 54.57500424 178.07113882 57.56274414 178.06005859 C59.63829832 178.0706359 61.71384182 178.08354638 63.78936768 178.09869385 C69.24705687 178.13290882 74.70438856 178.13827575 80.16217041 178.13677979 C87.86992175 178.14000614 95.57757363 178.18260345 103.28521729 178.22052002 C107.39069307 178.24060008 111.49597858 178.24987058 115.60150146 178.25067139 C117.46586106 178.25448991 119.3302206 178.25833372 121.19458008 178.26220703 C122.48183235 178.25905739 122.48183235 178.25905739 123.79508972 178.25584412 C129.65286049 178.27517494 129.65286049 178.27517494 130.76586914 179.38818359 C131.4717802 187.23011798 130.11604181 194.98035797 128.89086914 202.70068359 C128.7168457 203.83441406 128.54282227 204.96814453 128.36352539 206.13623047 C128.01361591 208.41064209 127.65852043 210.68426226 127.2980957 212.95703125 C126.93260275 215.31328717 126.5866283 217.67262828 126.25708008 220.03417969 C126.09240234 221.19643066 125.92772461 222.35868164 125.75805664 223.55615234 C125.61480957 224.60440186 125.4715625 225.65265137 125.32397461 226.73266602 C124.76586914 229.38818359 124.76586914 229.38818359 122.76586914 232.38818359 C120.78853035 232.76850033 120.78853035 232.76850033 118.31619263 232.77586365 C117.37998581 232.78576828 116.44377899 232.79567291 115.47920227 232.80587769 C114.44861191 232.80137604 113.41802155 232.79687439 112.35620117 232.79223633 C111.27303116 232.79909958 110.18986115 232.80596283 109.0738678 232.81303406 C105.47367422 232.83141221 101.87391233 232.82744566 98.27368164 232.82177734 C95.77179828 232.82633692 93.26991617 232.83164182 90.76803589 232.83766174 C85.51043764 232.84661673 80.25295171 232.84437938 74.99536133 232.83422852 C69.61013556 232.82406003 64.22527028 232.83096555 58.84008789 232.85473633 C52.33434254 232.88310713 45.82888746 232.89166707 39.32308578 232.88450813 C36.84892921 232.88435533 34.37476392 232.89036551 31.90063858 232.90279961 C28.42325841 232.91779993 24.94683424 232.90696189 21.46948242 232.88989258 C19.95396034 232.90439453 19.95396034 232.90439453 18.40782166 232.91918945 C3.60480525 232.76824158 -9.93177867 225.89761824 -20.23413086 215.38818359 C-29.71772789 204.62178116 -33.11929719 192.54828666 -32.23413086 178.38818359 C-31.70171877 172.48570466 -30.83440494 166.62648613 -29.98413086 160.76318359 C-29.75355663 159.12259476 -29.52383289 157.48188618 -29.29492188 155.84106445 C-28.72452793 151.7693835 -28.14325609 147.69936063 -27.5569458 143.62994385 C-27.08546731 140.35580254 -26.61904496 137.0809428 -26.15209961 133.80615234 C-25.66466374 130.39410124 -25.17617748 126.98221834 -24.68432617 123.57080078 C-22.9400987 111.44543679 -21.33653391 99.30200205 -19.73413086 87.15722656 C-19.24002473 83.43261208 -18.73837794 79.70909392 -18.23413086 75.98583984 C-16.63273602 64.1320792 -15.08621472 52.2764431 -13.68310547 40.39770508 C-9.51562068 5.12067305 -9.51562068 5.12067305 -7.01072693 1.73422241 C-4.59498142 -0.09606827 -3.01443226 0.00764933 0 0 Z " fill="#E52529" transform="translate(32.234130859375,9.61181640625)"/>
<path d="M0 0 C0 58.74 0 117.48 0 178 C-19.8 178 -39.6 178 -60 178 C-69.14497245 159.7100551 -69.14497245 159.7100551 -73.25 150.625 C-74.19884438 148.54019416 -75.14807637 146.45556469 -76.09765625 144.37109375 C-76.57734863 143.31647949 -77.05704102 142.26186523 -77.55126953 141.17529297 C-79.91076997 136.00379606 -82.30059858 130.84639067 -84.6875 125.6875 C-86.49185729 121.7795704 -88.29451062 117.87085755 -90.0960083 113.96160889 C-90.73109851 112.58350044 -91.36632368 111.20545418 -92.00164795 109.82745361 C-94.18496885 105.09110163 -96.36441605 100.3529927 -98.53970337 95.61294556 C-99.25782244 94.04943175 -99.97702405 92.48641467 -100.69735718 90.92391968 C-101.71005475 88.72666836 -102.71875392 86.52762219 -103.7265625 84.328125 C-104.02811752 83.67606583 -104.32967255 83.02400665 -104.6403656 82.35218811 C-108.04947968 74.88660278 -108.04947968 74.88660278 -109 71 C-107.37809179 68.45038553 -105.93783405 66.64121991 -103.875 64.5 C-102.74555337 63.25960641 -101.61666201 62.01870703 -100.48828125 60.77734375 C-99.9051416 60.14940918 -99.32200195 59.52147461 -98.72119141 58.87451172 C-96.08704486 56.00572063 -93.57943181 53.03391296 -91.0625 50.0625 C-86.8949371 45.19100306 -82.70189069 40.34189308 -78.5 35.5 C-74.24154621 30.59060477 -69.98628659 25.67854789 -65.75 20.75 C-65.01040039 19.88991333 -65.01040039 19.88991333 -64.25585938 19.01245117 C-60.38242771 14.48891041 -56.63403581 9.87670812 -52.9375 5.20703125 C-39.54159404 -10.05241808 -25.03566845 0 0 0 Z " fill="#E52529" transform="translate(642,70)"/>
<path d="M0 0 C0.98737656 0.00142502 1.97475311 0.00285004 2.99205017 0.00431824 C4.10983353 0.00124161 5.22761688 -0.00183502 6.37927246 -0.00500488 C8.19648048 0.00577339 8.19648048 0.00577339 10.05039978 0.01676941 C11.28817673 0.01722763 12.52595367 0.01768585 13.80123901 0.01815796 C17.093824 0.02195956 20.38621712 0.03497992 23.67875671 0.05162048 C27.03376 0.06507651 30.38872983 0.06189632 33.74375916 0.06169128 C36.2834747 0.06660648 38.82318868 0.07243481 41.36289978 0.07926941 C42.57639603 0.08038223 43.78989227 0.08149506 45.04016113 0.0826416 C46.71210793 0.09221138 46.71210793 0.09221138 48.41783142 0.10197449 C49.89770287 0.10769218 49.89770287 0.10769218 51.4074707 0.11352539 C53.64024353 0.24723816 53.64024353 0.24723816 54.64024353 1.24723816 C54.42822568 9.39689152 53.10100545 17.51113395 51.89024353 25.55973816 C50.14467512 37.43905209 48.58288419 49.33533567 47.07774353 61.24723816 C45.53388658 73.43498069 43.93086734 85.60133528 42.03038025 97.73942566 C39.73994962 112.46239398 37.5892847 127.19738269 35.78257751 141.98771667 C34.18119339 155.08907406 32.40963601 168.16767651 30.64024353 181.24723816 C30.46847595 182.51954285 30.29670837 183.79184753 30.11973572 185.10270691 C26.63627187 210.8449143 26.63627187 210.8449143 24.59117126 223.17765808 C23.86900568 227.57070151 23.35585001 231.93330099 23.00816345 236.37321472 C22.64024353 238.24723816 22.64024353 238.24723816 20.64024353 240.24723816 C18.32518005 240.50120544 18.32518005 240.50120544 15.39610291 240.50602722 C13.75430054 240.5154837 13.75430054 240.5154837 12.07933044 240.52513123 C10.89286926 240.52108276 9.70640808 240.5170343 8.48399353 240.51286316 C7.2707843 240.51477661 6.05757507 240.51669006 4.80760193 240.5186615 C2.2386301 240.5200245 -0.33034859 240.51632008 -2.89930725 240.50798035 C-6.84331151 240.49728276 -10.78686022 240.5078721 -14.73085022 240.52067566 C-17.22173665 240.51935409 -19.71262279 240.51679174 -22.20350647 240.51286316 C-23.98319824 240.51893585 -23.98319824 240.51893585 -25.79884338 240.52513123 C-26.8933783 240.5188269 -27.98791321 240.51252258 -29.11561584 240.50602722 C-30.0822113 240.50443604 -31.04880676 240.50284485 -32.04469299 240.50120544 C-34.35975647 240.24723816 -34.35975647 240.24723816 -36.35975647 238.24723816 C-36.12894452 235.20471695 -35.7863061 232.26277846 -35.35975647 229.24723816 C-35.17379352 227.60065682 -34.99294448 225.95349119 -34.81678772 224.30583191 C-33.08044733 208.9868065 -30.8504007 193.7598832 -28.51722717 178.52238464 C-27.02582741 168.77633157 -25.61605188 159.02693212 -24.35975647 149.24723816 C-24.14256268 147.56201552 -23.92535818 145.87679426 -23.70814514 144.1915741 C-23.34740677 141.39034455 -22.98679753 138.58909849 -22.62638855 135.78782654 C-20.34771513 118.08777335 -18.02450835 100.4128714 -15.22694397 82.78630066 C-13.16826733 69.79346065 -11.5351764 56.73903932 -9.92225647 43.68473816 C-8.74789522 34.24274812 -7.54771325 24.8044377 -6.29725647 15.37223816 C-6.13491516 14.09920837 -5.97257385 12.82617859 -5.80531311 11.51457214 C-5.64667786 10.33580505 -5.4880426 9.15703796 -5.32460022 7.94255066 C-5.18658997 6.89083679 -5.04857971 5.83912292 -4.90638733 4.75553894 C-4.18722994 1.45557334 -3.42291358 0.35862805 0 0 Z " fill="#E52529" transform="translate(493.35975646972656,0.7527618408203125)"/>
<path d="M0 0 C1.51188148 -0.01913956 1.51188148 -0.01913956 3.05430603 -0.03866577 C4.1418367 -0.04089142 5.22936737 -0.04311707 6.34985352 -0.04541016 C8.02725365 -0.05539536 8.02725365 -0.05539536 9.73854065 -0.06558228 C12.10481113 -0.07571275 14.4711102 -0.08039917 16.83740234 -0.08007812 C20.46117103 -0.08445143 24.08372227 -0.12076907 27.70727539 -0.15869141 C30.00479726 -0.16455935 32.30232492 -0.16852889 34.59985352 -0.17041016 C35.68535995 -0.18478119 36.77086639 -0.19915222 37.88926697 -0.21395874 C39.40587669 -0.20472885 39.40587669 -0.20472885 40.953125 -0.1953125 C41.84120346 -0.19816254 42.72928192 -0.20101257 43.64427185 -0.20394897 C46.90007807 0.46769357 48.09420504 1.62678117 50.04125977 4.29052734 C50.26051331 6.70878601 50.26051331 6.70878601 49.87548828 9.36743164 C49.68335251 10.82782364 49.68335251 10.82782364 49.48733521 12.31771851 C49.34013031 13.29874542 49.19292542 14.27977234 49.04125977 15.29052734 C48.82883525 17.0425612 48.61906351 18.79491898 48.41210938 20.54760742 C48.17503294 22.38540567 47.93541785 24.22287775 47.69360352 26.06005859 C47.56142929 27.07400696 47.42925507 28.08795532 47.29307556 29.13262939 C46.85810559 32.45651615 46.41890332 35.77982191 45.97875977 39.10302734 C45.8267511 40.25535858 45.67474243 41.40768982 45.51812744 42.59494019 C42.69770286 63.92629902 39.58687794 85.20906758 36.39764404 106.48789978 C36.23492004 107.57389969 36.07219604 108.6598996 35.90454102 109.77880859 C35.74455627 110.84639908 35.58457153 111.91398956 35.41973877 113.01393127 C33.92510779 123.01506546 32.49546388 133.02459601 31.10375977 143.04052734 C31.00198425 143.7679715 30.90020874 144.49541565 30.79534912 145.24490356 C30.51172116 147.27542323 30.23129141 149.30636258 29.95141602 151.33740234 C29.78399902 152.53945312 29.61658203 153.74150391 29.4440918 154.97998047 C28.99144727 158.69989546 28.75859667 162.40482033 28.67578125 166.15087891 C27.5958716 169.7924057 26.14612113 171.0877974 23.04125977 173.29052734 C19.12066738 174.01373509 15.26016015 173.94343007 11.28344727 173.88427734 C9.5734404 173.88433777 9.5734404 173.88433777 7.82888794 173.88439941 C5.42322261 173.87904512 3.01755767 173.86146655 0.61206055 173.83251953 C-3.07744522 173.79059887 -6.76512982 173.79145698 -10.45483398 173.79833984 C-12.7920863 173.78784982 -15.12932918 173.77491274 -17.46655273 173.75927734 C-18.57282013 173.75907593 -19.67908752 173.75887451 -20.81887817 173.75866699 C-21.84359222 173.74275513 -22.86830627 173.72684326 -23.92407227 173.71044922 C-25.2771196 173.69782043 -25.2771196 173.69782043 -26.65750122 173.68493652 C-28.95874023 173.29052734 -28.95874023 173.29052734 -30.77584839 171.98693848 C-32.83450944 169.03456752 -31.81848551 165.6722795 -31.33374023 162.29052734 C-31.23182373 161.48945557 -31.12990723 160.68838379 -31.02490234 159.86303711 C-30.19406386 153.51265957 -29.17310307 147.19136982 -28.13378906 140.87231445 C-27.08380562 134.38428904 -26.27668415 127.8813091 -25.52124023 121.35302734 C-24.05327152 108.70583711 -22.2677294 96.11384428 -20.42749023 83.51611328 C-20.00381602 80.60070509 -19.5879845 77.6843785 -19.17749023 74.76708984 C-17.69360086 64.22728691 -16.09355053 53.71015722 -14.44360352 43.19506836 C-13.10288748 34.52420311 -11.97883749 25.83623546 -10.99780273 17.11743164 C-10.39903026 11.99445195 -9.76922564 7.13774891 -7.95874023 2.29052734 C-4.70811788 0.12344578 -3.76209844 0.03232421 0 0 Z " fill="#E5262A" transform="translate(203.958740234375,67.70947265625)"/>
<path d="M0 0 C31.68 0 63.36 0 96 0 C96 23.1 96 46.2 96 70 C72.8125 70.1875 72.8125 70.1875 65.51489258 70.20776367 C63.5997442 70.23421491 61.68461981 70.26249323 59.76953125 70.29296875 C58.78029663 70.28898071 57.79106201 70.28499268 56.77185059 70.28088379 C50.91942502 70.38460677 50.91942502 70.38460677 45.98803711 73.3737793 C45.00395874 74.67375854 45.00395874 74.67375854 44 76 C43.14921875 76.89976563 42.2984375 77.79953125 41.421875 78.7265625 C36.13851448 84.45792728 31.07070589 90.27695247 26.1796875 96.3515625 C24.02242601 98.97275119 21.78689 101.49154281 19.5 104 C15.58231158 108.29857479 11.91032858 112.75609805 8.25390625 117.27734375 C5.34627244 120.78968477 2.28265101 124.14212613 -0.80078125 127.5 C-3.76526165 130.86992443 -6.43242491 134.44270164 -9.078125 138.06640625 C-11.38099756 140.38332072 -12.8436666 140.49714959 -16 141 C-16.18557524 132.72911756 -15.78659676 124.9056617 -14.4375 116.75 C-14.06977067 114.39612065 -13.70406417 112.04192484 -13.33984375 109.6875 C-13.23807831 109.0360199 -13.13631287 108.38453979 -13.03146362 107.71331787 C-11.42776689 97.40609822 -9.97446186 87.07632143 -8.5 76.75 C-8.34776978 75.686604 -8.19553955 74.62320801 -8.03869629 73.52758789 C-5.99742694 59.25659403 -4.02407136 44.98067492 -2.2421875 30.67480469 C-1.41838422 24.07860414 -0.47631406 17.52051726 0.62182617 10.96386719 C1.42482181 5.33294171 1.42482181 5.33294171 0 0 Z " fill="#FEFDFD" transform="translate(546,0)"/>
<path d="M0 0 C0.33 0 0.66 0 1 0 C1 50.82 1 101.64 1 154 C-1.28231334 151.71768666 -2.16918075 149.73928572 -3.51171875 146.8046875 C-4.26582031 145.16693359 -4.26582031 145.16693359 -5.03515625 143.49609375 C-5.58042969 142.30113281 -6.12570312 141.10617188 -6.6875 139.875 C-7.56300193 137.96993573 -8.44021362 136.06566478 -9.3175354 134.16143799 C-9.93257888 132.82633208 -10.54713201 131.49100019 -11.16122437 130.15545654 C-14.5675812 122.75156153 -18.03357516 115.37590713 -21.5 108 C-25.23800325 100.04153801 -28.96938833 92.08024997 -32.6640625 84.1015625 C-32.95823059 83.46651794 -33.25239868 82.83147339 -33.55548096 82.17718506 C-34.93963439 79.18816575 -36.32178937 76.19825726 -37.70117188 73.20703125 C-38.19423828 72.14097656 -38.68730469 71.07492188 -39.1953125 69.9765625 C-39.66098633 68.96754883 -40.12666016 67.95853516 -40.60644531 66.91894531 C-42.35401515 63.25847844 -44.25454063 59.68742429 -46.21044922 56.13427734 C-47.14917935 53.59674524 -46.98759007 52.48748422 -46 50 C-44.3984375 48.140625 -44.3984375 48.140625 -42.375 46.25 C-39.05314395 43.05161116 -35.98582404 39.75926456 -32.98046875 36.265625 C-30.53394314 33.46683831 -28.01926833 30.73306822 -25.5 28 C-22.50020703 24.74331173 -19.51744463 21.47793333 -16.625 18.125 C-13.20065615 14.18029018 -9.66794244 10.33794819 -6.125 6.5 C-5.24835693 5.54504639 -5.24835693 5.54504639 -4.35400391 4.57080078 C-2.92359274 3.02753999 -1.46437793 1.51106825 0 0 Z " fill="#FEFCFC" transform="translate(641,91)"/>
<path d="M0 0 C0.95769287 -0.01189865 1.91538574 -0.0237973 2.90209961 -0.03605652 C4.92262468 -0.05257114 6.94329401 -0.05597001 8.96386719 -0.04711914 C12.0538959 -0.04298027 15.13742276 -0.10810818 18.2265625 -0.17773438 C20.1926968 -0.18521371 22.15885178 -0.18860613 24.125 -0.1875 C25.04595459 -0.21310501 25.96690918 -0.23871002 26.91577148 -0.26509094 C29.53358948 -0.21804573 31.58870192 -0.09489332 34.0625 0.76953125 C37.5107063 4.34401391 39.69908297 8.80283186 40.0625 13.76953125 C40.124375 14.40246094 40.18625 15.03539062 40.25 15.6875 C40.82110471 25.7710675 36.38950007 35.1097928 30.0625 42.76953125 C21.80098613 51.38357726 13.85462775 55.76515205 1.875 56.14453125 C-5.61963361 56.06822842 -11.16306016 54.13613966 -16.78125 49.125 C-23.02357956 42.34717648 -24.51804971 36.12700164 -24.2890625 27.05078125 C-23.31615744 17.97033404 -18.41421237 10.30714742 -12.96850586 3.19970703 C-8.70569978 -0.21809174 -5.32267105 -0.00410341 0 0 Z " fill="#E4262A" transform="translate(224.9375,-0.76953125)"/>
<path d="M0 0 C0.33 0 0.66 0 1 0 C1 1.65 1 3.3 1 5 C2.32 5 3.64 5 5 5 C5 5.66 5 6.32 5 7 C22.16 7 39.32 7 57 7 C57 7.33 57 7.66 57 8 C49.20380412 8.05057624 41.4076503 8.08568114 33.61132812 8.10986328 C30.95734069 8.11994089 28.3033644 8.13360313 25.64941406 8.15087891 C21.84176893 8.17504992 18.03427016 8.18646535 14.2265625 8.1953125 C12.43745956 8.21079636 12.43745956 8.21079636 10.61221313 8.22659302 C8.96072769 8.22681961 8.96072769 8.22681961 7.27587891 8.22705078 C5.8169371 8.23371262 5.8169371 8.23371262 4.32852173 8.24050903 C2 8 2 8 0 6 C-0.125 2.875 -0.125 2.875 0 0 Z " fill="#AE4747" transform="translate(457,233)"/>
<path d="M0 0 C0.66 0 1.32 0 2 0 C2.16589226 6.02741895 1.57114133 11.57494793 0.5 17.5 C0.35691406 18.32242188 0.21382813 19.14484375 0.06640625 19.9921875 C-0.28306912 21.99584627 -0.64068156 23.99808298 -1 26 C-1.33 26 -1.66 26 -2 26 C-2 20.72 -2 15.44 -2 10 C-1.34 10 -0.68 10 0 10 C0 6.7 0 3.4 0 0 Z " fill="#D54143" transform="translate(82,24)"/>
<path d="M0 0 C0.66 0.33 1.32 0.66 2 1 C-2.9668638 6.69637192 -7.97167385 12.35782624 -13 18 C-13.33 16.68 -13.66 15.36 -14 14 C-13.34 14 -12.68 14 -12 14 C-12 13.34 -12 12.68 -12 12 C-11.34 12 -10.68 12 -10 12 C-10 11.34 -10 10.68 -10 10 C-9.34 10 -8.68 10 -8 10 C-8 9.34 -8 8.68 -8 8 C-7.34 8 -6.68 8 -6 8 C-6 7.34 -6 6.68 -6 6 C-5.34 6 -4.68 6 -4 6 C-4 5.34 -4 4.68 -4 4 C-3.34 4 -2.68 4 -2 4 C-2 3.34 -2 2.68 -2 2 C-1.34 2 -0.68 2 0 2 C0 1.34 0 0.68 0 0 Z " fill="#D03B43" transform="translate(632,98)"/>
<path d="M0 0 C0.66 0 1.32 0 2 0 C1.72159206 3.41788271 1.42496793 6.83394735 1.125 10.25 C1.04636719 11.21808594 0.96773437 12.18617188 0.88671875 13.18359375 C0.80292969 14.11816406 0.71914063 15.05273438 0.6328125 16.015625 C0.55949707 16.87446289 0.48618164 17.73330078 0.41064453 18.61816406 C0 21 0 21 -2 25 C-2 20.05 -2 15.1 -2 10 C-1.34 10 -0.68 10 0 10 C0 6.7 0 3.4 0 0 Z " fill="#CF3F42" transform="translate(520,190)"/>
<path d="M0 0 C0.33 0 0.66 0 1 0 C1.33165588 8.862582 0.3213258 17.2580141 -1 26 C-1.33 26 -1.66 26 -2 26 C-2 20.06 -2 14.12 -2 8 C-1.34 8 -0.68 8 0 8 C0 5.36 0 2.72 0 0 Z " fill="#CD5150" transform="translate(524,164)"/>
<path d="M0 0 C0.33 0 0.66 0 1 0 C1 4.95 1 9.9 1 15 C0.34 15 -0.32 15 -1 15 C-1 17.64 -1 20.28 -1 23 C-1.66 23 -2.32 23 -3 23 C-2.688288 20.47906702 -2.37565098 17.9582543 -2.0625 15.4375 C-1.97548828 14.73302734 -1.88847656 14.02855469 -1.79882812 13.30273438 C-1.24615509 8.86088073 -0.64605404 4.42925336 0 0 Z " fill="#CC3F43" transform="translate(191,101)"/>
<path d="M0 0 C0 0.99 0 1.98 0 3 C-0.66 3.66 -1.32 4.32 -2 5 C-2.45811675 6.97235333 -2.45811675 6.97235333 -2.625 9.125 C-2.74875 10.40375 -2.8725 11.6825 -3 13 C-4.625 11.3125 -4.625 11.3125 -6 9 C-5.09158433 4.96259703 -3.02702828 2.72432545 0 0 Z " fill="#C94C55" transform="translate(539,134)"/>
<path d="M0 0 C2 1 2 1 3.125 4.0625 C3.41375 5.031875 3.7025 6.00125 4 7 C2.68 7 1.36 7 0 7 C0 4.69 0 2.38 0 0 Z " fill="#D4404B" transform="translate(624,209)"/>
<path d="M0 0 C1.32 0.33 2.64 0.66 4 1 C1.03 3.475 1.03 3.475 -2 6 C-2 4.68 -2 3.36 -2 2 C-1.34 2 -0.68 2 0 2 C0 1.34 0 0.68 0 0 Z " fill="#D2373B" transform="translate(636,92)"/>
</svg>
